<svg width="24" height="24" viewBox="0 0 24 24" fill="none" xmlns="http://www.w3.org/2000/svg">
<path d="M12 22.75C9.87386 22.75 7.79545 22.1195 6.02762 20.9383C4.2598 19.7571 2.88194 18.0782 2.0683 16.1139C1.25466 14.1495 1.04177 11.9881 1.45656 9.90278C1.87135 7.81749 2.89519 5.90202 4.39861 4.39861C5.90202 2.89519 7.81749 1.87135 9.90278 1.45656C11.9881 1.04177 14.1495 1.25466 16.1139 2.0683C18.0782 2.88194 19.7571 4.2598 20.9383 6.02762C22.1195 7.79545 22.75 9.87386 22.75 12C22.7476 14.8504 21.6143 17.5833 19.5988 19.5988C17.5833 21.6143 14.8504 22.7476 12 22.75ZM12 2.75C10.1705 2.75 8.38213 3.29251 6.86098 4.30891C5.33983 5.32531 4.15423 6.76997 3.45412 8.46018C2.75401 10.1504 2.57083 12.0103 2.92774 13.8046C3.28465 15.5989 4.16563 17.2471 5.45927 18.5407C6.7529 19.8344 8.40109 20.7154 10.1954 21.0723C11.9897 21.4292 13.8496 21.246 15.5398 20.5459C17.23 19.8458 18.6747 18.6602 19.6911 17.139C20.7075 15.6179 21.25 13.8295 21.25 12C21.2471 9.54765 20.2716 7.19656 18.5375 5.46248C16.8034 3.7284 14.4524 2.75292 12 2.75Z" fill="white"/>
<path d="M15.5 12.75H9.5C9.30149 12.7487 9.11149 12.6693 8.97112 12.5289C8.83075 12.3885 8.75131 12.1985 8.75 12C8.75131 11.8015 8.83075 11.6115 8.97112 11.4711C9.11149 11.3307 9.30149 11.2513 9.5 11.25H15.5C15.6985 11.2513 15.8885 11.3307 16.0289 11.4711C16.1693 11.6115 16.2487 11.8015 16.25 12C16.2487 12.1985 16.1693 12.3885 16.0289 12.5289C15.8885 12.6693 15.6985 12.7487 15.5 12.75Z" fill="white"/>
<path d="M11.5011 15.753C11.4026 15.7533 11.305 15.7341 11.214 15.6963C11.123 15.6585 11.0404 15.603 10.9711 15.533L7.97112 12.533C7.83164 12.3919 7.75342 12.2014 7.75342 12.003C7.75342 11.8046 7.83164 11.6141 7.97112 11.473L10.9711 8.47299C11.1133 8.34051 11.3013 8.26839 11.4956 8.27181C11.6899 8.27524 11.8753 8.35396 12.0127 8.49137C12.1502 8.62878 12.2289 8.81417 12.2323 9.00847C12.2357 9.20277 12.1636 9.39081 12.0311 9.53299L9.56112 12.003L12.0311 14.473C12.1706 14.6141 12.2488 14.8046 12.2488 15.003C12.2488 15.2014 12.1706 15.3919 12.0311 15.533C11.9618 15.603 11.8792 15.6585 11.7882 15.6963C11.6973 15.7341 11.5996 15.7533 11.5011 15.753Z" fill="white"/>
</svg>
