<svg width="42" height="42" viewBox="0 0 42 42" fill="none" xmlns="http://www.w3.org/2000/svg">
<path fill-rule="evenodd" clip-rule="evenodd" d="M8.75 14C7.7835 14 7 14.7835 7 15.75V33.25C7 36.1495 9.3505 38.5 12.25 38.5H29.75C32.6495 38.5 35 36.1495 35 33.25V15.75C35 14.7835 34.2165 14 33.25 14H8.75ZM15.75 19.25C16.7165 19.25 17.5 20.0335 17.5 21V31.5C17.5 32.4665 16.7165 33.25 15.75 33.25C14.7835 33.25 14 32.4665 14 31.5V21C14 20.0335 14.7835 19.25 15.75 19.25ZM28 21C28 20.0335 27.2165 19.25 26.25 19.25C25.2835 19.25 24.5 20.0335 24.5 21V31.5C24.5 32.4665 25.2835 33.25 26.25 33.25C27.2165 33.25 28 32.4665 28 31.5V21Z" fill="#FF2C2C"/>
<path d="M7 10.5C6.0335 10.5 5.25 9.7165 5.25 8.75C5.25 7.7835 6.0335 7 7 7H12.5487C13.2694 4.96091 15.2141 3.5 17.5 3.5H24.5C26.7859 3.5 28.7306 4.96091 29.4513 7H35C35.9665 7 36.75 7.7835 36.75 8.75C36.75 9.7165 35.9665 10.5 35 10.5H7Z" fill="#FF2C2C"/>
</svg>
