<svg width="42" height="42" viewBox="0 0 42 42" fill="none" xmlns="http://www.w3.org/2000/svg">
<circle cx="21" cy="10.5" r="7" fill="white"/>
<path d="M26.9758 23.6379C25.2081 23.0724 23.1699 22.75 21 22.75C14.2345 22.75 8.75 25.884 8.75 29.75C8.75 33.496 13.8993 36.5547 20.3737 36.741C20.3262 36.52 20.2895 36.3006 20.2606 36.0851C20.1246 35.0741 20.1248 33.8389 20.125 32.5254V32.2245C20.1248 30.9111 20.1246 29.6758 20.2606 28.6648C20.4118 27.5398 20.7733 26.3083 21.7909 25.2908C22.8084 24.2733 24.0398 23.9118 25.1649 23.7605C25.7108 23.6871 26.3221 23.6534 26.9758 23.6379Z" fill="white"/>
<path fill-rule="evenodd" clip-rule="evenodd" d="M28.875 38.5C25.9876 38.5 24.544 38.5 23.647 37.603C22.75 36.706 22.75 35.2624 22.75 32.375C22.75 29.4876 22.75 28.044 23.647 27.147C24.544 26.25 25.9876 26.25 28.875 26.25C31.7624 26.25 33.206 26.25 34.103 27.147C35 28.044 35 29.4876 35 32.375C35 35.2624 35 36.706 34.103 37.603C33.206 38.5 31.7624 38.5 28.875 38.5ZM26.8746 28.9309C26.476 28.5323 25.8296 28.5323 25.4309 28.9309C25.0323 29.3296 25.0323 29.976 25.4309 30.3746L27.4313 32.375L25.4309 34.3754C25.0323 34.774 25.0323 35.4204 25.4309 35.8191C25.8296 36.2177 26.476 36.2177 26.8746 35.8191L28.875 33.8187L30.8754 35.8191C31.274 36.2177 31.9204 36.2177 32.3191 35.8191C32.7177 35.4204 32.7177 34.774 32.3191 34.3754L30.3187 32.375L32.3191 30.3746C32.7177 29.976 32.7177 29.3296 32.3191 28.9309C31.9204 28.5323 31.274 28.5323 30.8754 28.9309L28.875 30.9313L26.8746 28.9309Z" fill="white"/>
</svg>
