<svg width="34" height="24" viewBox="0 0 34 24" fill="none" xmlns="http://www.w3.org/2000/svg">
<rect x="0.5" y="0.5" width="33" height="23" rx="3.5" fill="white"/>
<rect x="0.5" y="0.5" width="33" height="23" rx="3.5" stroke="#F9F7F6"/>
<path d="M21.8601 8.93994C23.0642 8.94007 24.1999 10.0569 24.2068 12.106C24.2068 14.3457 23.0849 15.3636 21.8533 15.3638C21.248 15.3638 20.8832 15.1022 20.6355 14.9185L20.6287 16.9175L18.908 17.2925V9.05322H20.4216L20.5115 9.4917C20.7523 9.26559 21.1858 8.93994 21.8601 8.93994ZM7.18335 8.93994C7.75429 8.93999 8.31846 9.03205 8.8894 9.26514V10.9263C8.36659 10.6366 7.70624 10.4742 7.18335 10.4741C6.8188 10.4741 6.59855 10.5796 6.59839 10.855C6.59839 11.6463 9.21908 11.2722 9.22632 13.3774C9.22632 14.6423 8.24252 15.3706 6.81128 15.3706C6.21953 15.3706 5.57228 15.2499 4.93237 14.9673V13.2856C5.51035 13.6107 6.24017 13.8511 6.81128 13.8511C7.19656 13.8511 7.47135 13.7453 7.47144 13.4204C7.47144 12.5796 4.85718 12.8902 4.85718 10.9399C4.85725 9.68934 5.78656 8.93994 7.18335 8.93994ZM11.2429 9.06006H12.5496V10.5659H11.2429V13.0737C11.2429 14.119 12.3287 13.7947 12.5496 13.7026V15.1372C12.3224 15.2643 11.9095 15.3706 11.3455 15.3706C10.3273 15.3704 9.56323 14.5998 9.56323 13.5542L9.57007 7.89502L11.2498 7.52686L11.2429 9.06006ZM27.1443 8.93994C28.775 8.93994 29.6286 10.3675 29.6287 12.1763C29.6287 12.3457 29.615 12.7128 29.615 12.8052H26.2498C26.3254 13.6389 26.9174 13.8793 27.5847 13.8794C28.2659 13.8794 28.8033 13.731 29.2712 13.4907V14.9038C28.8034 15.1723 28.1837 15.3637 27.365 15.3638C25.6861 15.3638 24.5164 14.2894 24.5164 12.1626C24.5164 10.3679 25.5068 8.9401 27.1443 8.93994ZM14.6902 9.5835C15.0958 8.82102 15.8998 8.97522 16.1208 9.06006V10.686C15.9072 10.6083 15.22 10.5095 14.8142 11.0532V15.2437H13.0935V9.06006H14.5798L14.6902 9.5835ZM18.2683 15.2437H16.5408V9.06006H18.2683V15.2437ZM21.447 10.5093C21.0551 10.5093 20.8075 10.6503 20.6287 10.855L20.6355 13.4771C20.8006 13.6606 21.0413 13.8091 21.447 13.8091C22.08 13.8091 22.5065 13.1024 22.5066 12.1558C22.5066 11.2301 22.0732 10.5093 21.447 10.5093ZM27.1375 10.3745C26.704 10.3746 26.2292 10.707 26.2292 11.5054H28.0046C28.0046 10.7069 27.5572 10.3745 27.1375 10.3745ZM18.2683 8.14209L16.5408 8.52393V7.08154L18.2683 6.70752V8.14209Z" fill="#6461FC"/>
</svg>
