<svg width="34" height="24" viewBox="0 0 34 24" fill="none" xmlns="http://www.w3.org/2000/svg">
<rect x="0.5" y="0.5" width="33" height="23" rx="3.5" fill="white"/>
<rect x="0.5" y="0.5" width="33" height="23" rx="3.5" stroke="#F9F7F6"/>
<path d="M21.5771 5.02979C25.322 5.02979 28.3584 8.02967 28.3584 11.73C28.3583 15.4302 25.322 18.4302 21.5771 18.4302C19.8982 18.4301 18.3629 17.8254 17.1787 16.8267C15.9945 17.8253 14.4591 18.4302 12.7803 18.4302C9.03566 18.43 6.00011 15.4301 6 11.73C6 8.02981 9.03559 5.03001 12.7803 5.02979C14.459 5.02979 15.9945 5.63386 17.1787 6.63232C18.3629 5.63373 19.8983 5.02981 21.5771 5.02979Z" fill="#ED0006"/>
<path d="M21.5774 5.02979C25.3222 5.02987 28.3577 8.02972 28.3577 11.73C28.3576 15.4301 25.3221 18.4301 21.5774 18.4302C19.8985 18.4302 18.3632 17.8253 17.179 16.8267C18.6361 15.5978 19.5617 13.7713 19.5618 11.73C19.5618 9.68849 18.6363 7.86122 17.179 6.63232C18.3631 5.63379 19.8986 5.02979 21.5774 5.02979Z" fill="#F9A000"/>
<path d="M17.1785 6.63232C18.636 7.86122 19.5613 9.68835 19.5613 11.73C19.5612 13.7714 18.6358 15.5978 17.1785 16.8267C15.7215 15.5978 14.7967 13.7711 14.7966 11.73C14.7966 9.68864 15.7213 7.86122 17.1785 6.63232Z" fill="#FF5E00"/>
</svg>
