<svg width="34" height="24" viewBox="0 0 34 24" fill="none" xmlns="http://www.w3.org/2000/svg">
<rect x="0.5" y="0.5" width="33" height="23" rx="3.5" fill="white"/>
<rect x="0.5" y="0.5" width="33" height="23" rx="3.5" stroke="#F9F7F6"/>
<path d="M26.7114 14.1304H26.729L28.146 10.5718H29.1431L26.0796 17.7056H25.1343L26.2729 15.2104L24.2632 10.5718H25.2593L26.7114 14.1304ZM21.9175 10.4097C22.5949 10.4097 23.1301 10.5946 23.5229 10.9585C23.9158 11.3224 24.1089 11.8309 24.1089 12.4722V15.5278H23.2329V14.8403H23.1929C22.8114 15.4064 22.3101 15.6899 21.6782 15.6899C21.143 15.6899 20.6873 15.5281 20.3286 15.2046C19.9756 14.9042 19.7763 14.4596 19.7876 13.9917C19.7876 13.4776 19.9813 13.0733 20.3628 12.7671C20.7442 12.461 21.2564 12.3101 21.894 12.3101C22.4405 12.3101 22.8848 12.4145 23.2378 12.6108V12.397C23.2378 12.0794 23.1018 11.7787 22.8628 11.5708C22.618 11.3513 22.3045 11.23 21.98 11.23C21.4675 11.23 21.0632 11.4501 20.7671 11.8892L19.9585 11.3745C20.3912 10.7334 21.0463 10.4097 21.9175 10.4097ZM17.5728 8.28369C18.1591 8.27221 18.7284 8.49773 19.144 8.91357C19.9754 9.69923 20.0267 11.0224 19.2466 11.8716L19.144 11.9751C18.717 12.3852 18.1933 12.5932 17.5728 12.5933H16.0581V15.5278H15.1411V8.28369H17.5728ZM22.0366 13.061C21.6667 13.0611 21.3535 13.1536 21.103 13.3325C20.8581 13.5116 20.7329 13.7378 20.7329 14.0093C20.733 14.2517 20.8468 14.4772 21.0347 14.6157C21.2397 14.7774 21.4904 14.8637 21.7466 14.8579C22.1338 14.8579 22.5035 14.7016 22.7769 14.4243C23.0787 14.1355 23.2329 13.7947 23.2329 13.4019C22.9482 13.1709 22.549 13.0553 22.0366 13.061ZM16.0581 11.7036H17.5952C17.9369 11.7152 18.268 11.577 18.5015 11.3286C18.9798 10.826 18.9676 10.017 18.4722 9.53174C18.2387 9.30081 17.9254 9.17334 17.5952 9.17334H16.0581V11.7036Z" fill="#3C4043"/>
<path d="M12.893 11.9582C12.893 11.6751 12.8702 11.392 12.8247 11.1147H8.95837V12.7149H11.1734C11.0823 13.2291 10.7862 13.6912 10.3534 13.9801V15.0199H11.6745C12.4488 14.2978 12.893 13.2291 12.893 11.9582Z" fill="#4285F4"/>
<path d="M8.95854 16.0252C10.0632 16.0252 10.997 15.6555 11.6746 15.0201L10.3536 13.9802C9.98347 14.2344 9.51086 14.3788 8.95854 14.3788C7.88805 14.3788 6.98269 13.6452 6.65813 12.6631H5.29724V13.7376C5.99192 15.1414 7.40975 16.0252 8.95854 16.0252Z" fill="#34A853"/>
<path d="M6.65822 12.6626C6.48737 12.1485 6.48737 11.5882 6.65822 11.0682V9.99951H5.29712C4.71053 11.1722 4.71053 12.5587 5.29712 13.7314L6.65822 12.6626Z" fill="#FBBC04"/>
<path d="M8.95854 9.35271C9.54503 9.34116 10.1087 9.56646 10.5301 9.97662L11.7031 8.78658C10.9572 8.0818 9.97778 7.69475 8.95854 7.70631C7.40975 7.70631 5.99192 8.59594 5.29724 9.99972L6.65813 11.0742C6.98269 10.0864 7.88805 9.35271 8.95854 9.35271Z" fill="#EA4335"/>
</svg>
