<svg width="20" height="20" viewBox="0 0 20 20" fill="none" xmlns="http://www.w3.org/2000/svg">
<rect width="20" height="20" fill="#FF0000" fill-opacity="0.01"/>
<path d="M11.3015 9.99999L16.3975 4.90399C16.7566 4.54488 16.7566 3.96177 16.3975 3.60266C16.0384 3.24355 15.4553 3.24355 15.0962 3.60266L10.0002 8.69866L4.90416 3.60266C4.54505 3.24355 3.96194 3.24355 3.60283 3.60266C3.24372 3.96177 3.24372 4.54488 3.60283 4.90399L8.69883 9.99999L3.60283 15.096C3.24372 15.4551 3.24372 16.0382 3.60283 16.3973C3.96194 16.7564 4.54505 16.7564 4.90416 16.3973L10.0002 11.3013L15.0962 16.3973C15.4553 16.7564 16.0384 16.7564 16.3975 16.3973C16.7566 16.0382 16.7566 15.4551 16.3975 15.096L11.3015 9.99999Z" fill="black"/>
<mask id="mask0_85_3217" style="mask-type:alpha" maskUnits="userSpaceOnUse" x="3" y="3" width="14" height="14">
<path d="M11.3015 9.99999L16.3975 4.90399C16.7566 4.54488 16.7566 3.96177 16.3975 3.60266C16.0384 3.24355 15.4553 3.24355 15.0962 3.60266L10.0002 8.69866L4.90416 3.60266C4.54505 3.24355 3.96194 3.24355 3.60283 3.60266C3.24372 3.96177 3.24372 4.54488 3.60283 4.90399L8.69883 9.99999L3.60283 15.096C3.24372 15.4551 3.24372 16.0382 3.60283 16.3973C3.96194 16.7564 4.54505 16.7564 4.90416 16.3973L10.0002 11.3013L15.0962 16.3973C15.4553 16.7564 16.0384 16.7564 16.3975 16.3973C16.7566 16.0382 16.7566 15.4551 16.3975 15.096L11.3015 9.99999Z" fill="white"/>
</mask>
<g mask="url(#mask0_85_3217)">
<rect width="20" height="20" fill="#FCFCFC"/>
</g>
</svg>
