<svg width="18" height="18" viewBox="0 0 18 18" fill="none" xmlns="http://www.w3.org/2000/svg">
<g opacity="0.7">
<path d="M15.75 16.5H2.25C1.9425 16.5 1.6875 16.245 1.6875 15.9375C1.6875 15.63 1.9425 15.375 2.25 15.375H15.75C16.0575 15.375 16.3125 15.63 16.3125 15.9375C16.3125 16.245 16.0575 16.5 15.75 16.5Z" fill="#FCFCFC"/>
<path d="M14.2651 2.61C12.8101 1.155 11.3851 1.1175 9.89256 2.61L8.98506 3.5175C8.91006 3.5925 8.88006 3.7125 8.91006 3.8175C9.48006 5.805 11.0701 7.395 13.0576 7.965C13.0876 7.9725 13.1176 7.98 13.1476 7.98C13.2301 7.98 13.3051 7.95 13.3651 7.89L14.2651 6.9825C15.0076 6.2475 15.3676 5.535 15.3676 4.815C15.3751 4.0725 15.0151 3.3525 14.2651 2.61Z" fill="#FCFCFC"/>
<path d="M11.7075 8.64748C11.49 8.54248 11.28 8.43748 11.0775 8.31748C10.9125 8.21998 10.755 8.11498 10.5975 8.00248C10.47 7.91998 10.32 7.79998 10.1775 7.67998C10.1625 7.67248 10.11 7.62748 10.05 7.56748C9.8025 7.35748 9.525 7.08748 9.2775 6.78748C9.255 6.77248 9.2175 6.71998 9.165 6.65248C9.09 6.56248 8.9625 6.41248 8.85 6.23998C8.76 6.12748 8.65499 5.96248 8.5575 5.79748C8.4375 5.59498 8.3325 5.39248 8.2275 5.18248C8.08983 4.88747 7.70264 4.79983 7.47244 5.03003L3.255 9.24748C3.1575 9.34498 3.06749 9.53248 3.04499 9.65998L2.63999 12.5325C2.56499 13.0425 2.7075 13.5225 3.0225 13.845C3.2925 14.1075 3.66749 14.25 4.07249 14.25C4.16249 14.25 4.2525 14.2425 4.3425 14.2275L7.2225 13.8225C7.3575 13.8 7.545 13.71 7.635 13.6125L11.8594 9.38807C12.085 9.16248 12.0002 8.77433 11.7075 8.64748Z" fill="#FCFCFC"/>
</g>
</svg>
