<svg width="51" height="51" viewBox="0 0 51 51" fill="none" xmlns="http://www.w3.org/2000/svg">
<path d="M46.75 19.125V31.875C46.75 32.3638 46.75 32.8312 46.7075 33.2987C46.6225 33.1712 46.5162 33.0438 46.41 32.9375C46.3887 32.9163 46.3675 32.8738 46.3462 32.8525C44.625 30.94 42.0962 29.75 39.3125 29.75C36.635 29.75 34.1913 30.855 32.4488 32.64C30.77 34.3612 29.75 36.72 29.75 39.3125C29.75 41.0975 30.26 42.7975 31.1312 44.2425C31.5987 45.0288 32.1938 45.7512 32.8738 46.3462C32.9163 46.3675 32.9375 46.3888 32.9587 46.4101C33.065 46.5163 33.1712 46.6012 33.2987 46.7075C32.8525 46.75 32.3638 46.75 31.875 46.75H19.125C8.5 46.75 4.25 42.5 4.25 31.875V19.125C4.25 8.5 8.5 4.25 19.125 4.25H31.875C42.5 4.25 46.75 8.5 46.75 19.125Z" stroke="#FCFCFC" stroke-width="3" stroke-linecap="round" stroke-linejoin="round"/>
<path d="M5.35498 15.1088H45.645" stroke="#FCFCFC" stroke-width="3" stroke-linecap="round" stroke-linejoin="round"/>
<path d="M18.105 4.48376V14.8112" stroke="#FCFCFC" stroke-width="3" stroke-linecap="round" stroke-linejoin="round"/>
<path d="M32.895 4.48376V13.8551" stroke="#FCFCFC" stroke-width="3" stroke-linecap="round" stroke-linejoin="round"/>
<path d="M48.875 39.3125C48.875 40.0775 48.79 40.8212 48.5987 41.5437C48.365 42.5 47.9825 43.4138 47.4938 44.2425C45.8363 47.005 42.7975 48.875 39.3125 48.875C37.0175 48.875 34.935 48.0675 33.32 46.7075C33.2987 46.7075 33.2987 46.7075 33.2987 46.7075C33.1712 46.6012 33.065 46.5163 32.9587 46.4101C32.9375 46.3888 32.9163 46.3675 32.8738 46.3462C32.1938 45.7512 31.5987 45.0288 31.1312 44.2425C30.26 42.7975 29.75 41.0975 29.75 39.3125C29.75 36.72 30.77 34.3612 32.4488 32.64C34.1913 30.855 36.635 29.75 39.3125 29.75C42.0962 29.75 44.625 30.94 46.3462 32.8525C46.3675 32.8738 46.3887 32.9163 46.41 32.9375C46.5162 33.0438 46.6225 33.1712 46.7075 33.2987C48.0675 34.935 48.875 37.0387 48.875 39.3125Z" stroke="#FCFCFC" stroke-width="3" stroke-miterlimit="10" stroke-linecap="round" stroke-linejoin="round"/>
<path d="M42.8824 39.2699H35.7424" stroke="#FCFCFC" stroke-width="3" stroke-miterlimit="10" stroke-linecap="round" stroke-linejoin="round"/>
<path d="M39.3125 35.785V42.925" stroke="#FCFCFC" stroke-width="3" stroke-miterlimit="10" stroke-linecap="round" stroke-linejoin="round"/>
</svg>
