<svg width="24" height="22" viewBox="0 0 24 22" fill="none" xmlns="http://www.w3.org/2000/svg">
<path d="M14.4923 6.14606V2.24673C14.4912 2.17245 14.5159 2.09973 14.563 2.03893C14.61 1.97812 14.677 1.93233 14.7545 1.90805C14.8319 1.88378 14.9158 1.88227 14.9942 1.90373C15.0727 1.92519 15.1417 1.96853 15.1914 2.02759L21.5407 9.52107C21.75 9.76771 21.8634 10.0702 21.8634 10.3813C21.8634 10.6925 21.75 10.995 21.5407 11.2416L15.1923 18.7279C15.1431 18.7864 15.0748 18.8295 14.9972 18.8512C14.9195 18.8728 14.8363 18.8719 14.7593 18.8485C14.6822 18.8252 14.6152 18.7806 14.5675 18.7209C14.5198 18.6613 14.4938 18.5896 14.4933 18.516V14.6139C10.1023 14.6584 5.89067 16.2001 2.69635 18.9325C2.64065 18.9793 2.57109 19.0103 2.49622 19.0217C2.42135 19.0331 2.34444 19.0244 2.27494 18.9967C2.20544 18.969 2.14639 18.9235 2.10505 18.8657C2.06371 18.808 2.04188 18.7406 2.04224 18.6717V17.4356C2.04224 14.4415 3.35394 11.5699 5.68878 9.4527C8.02362 7.3355 11.1903 6.14606 14.4923 6.14606Z" fill="white"/>
</svg>
