<svg width="17" height="16" viewBox="0 0 17 16" fill="none" xmlns="http://www.w3.org/2000/svg">
<path fill-rule="evenodd" clip-rule="evenodd" d="M8.49999 14C11.4455 14 13.8333 11.6122 13.8333 8.66665C13.8333 5.72113 11.4455 3.33331 8.49999 3.33331C5.55447 3.33331 3.16666 5.72113 3.16666 8.66665C3.16666 11.6122 5.55447 14 8.49999 14ZM9.16666 5.99998C9.16666 5.63179 8.86818 5.33331 8.49999 5.33331C8.1318 5.33331 7.83332 5.63179 7.83332 5.99998V8.3905C7.83332 8.74413 7.9738 9.08326 8.22385 9.33331L9.36192 10.4714C9.62227 10.7317 10.0444 10.7317 10.3047 10.4714C10.5651 10.211 10.5651 9.78892 10.3047 9.52858L9.16666 8.3905V5.99998Z" fill="#0C0C0C"/>
<path d="M5.47736 2.72331C5.31074 2.3957 4.90811 2.26268 4.59695 2.45829C3.66849 3.04198 2.88261 3.82667 2.29752 4.75425C2.10143 5.06511 2.23384 5.46795 2.5612 5.63506C2.88856 5.80217 3.28643 5.6697 3.48873 5.36285C3.93798 4.68141 4.52163 4.09865 5.20374 3.65043C5.51091 3.44859 5.64397 3.05092 5.47736 2.72331Z" fill="#0C0C0C"/>
<path d="M11.5226 2.72331C11.6893 2.3957 12.0919 2.26268 12.4031 2.45829C13.3315 3.04198 14.1174 3.82667 14.7025 4.75425C14.8986 5.06511 14.7662 5.46795 14.4388 5.63506C14.1114 5.80217 13.7136 5.6697 13.5113 5.36285C13.062 4.68141 12.4784 4.09865 11.7963 3.65043C11.4891 3.44859 11.356 3.05092 11.5226 2.72331Z" fill="#0C0C0C"/>
</svg>
