<svg width="17" height="16" viewBox="0 0 17 16" fill="none" xmlns="http://www.w3.org/2000/svg">
<path fill-rule="evenodd" clip-rule="evenodd" d="M15.1667 12C15.1667 13.1046 14.2712 14 13.1667 14H3.83334C2.72877 14 1.83334 13.1046 1.83334 12V4C1.83334 2.89543 2.72877 2 3.83334 2H13.1667C14.2712 2 15.1667 2.89543 15.1667 4V12ZM11.1667 3.83333C11.1667 3.55719 10.9428 3.33333 10.6667 3.33333H9.66668C9.39053 3.33333 9.16668 3.55719 9.16668 3.83333V4.5C9.16668 4.77614 9.39053 5 9.66668 5H10.6667C10.9428 5 11.1667 4.77614 11.1667 4.5V3.83333ZM12.5 4.5C12.5 4.77614 12.7239 5 13 5H13.3333C13.6095 5 13.8333 4.77614 13.8333 4.5V4C13.8333 3.63181 13.5349 3.33333 13.1667 3.33333H13C12.7239 3.33333 12.5 3.55719 12.5 3.83333V4.5ZM3.16668 4.5C3.16668 4.77614 3.39053 5 3.66668 5H4.00001C4.27615 5 4.50001 4.77614 4.50001 4.5V3.83333C4.50001 3.55719 4.27615 3.33333 4.00001 3.33333H3.83334C3.46515 3.33333 3.16668 3.63181 3.16668 4V4.5ZM5.83334 4.5C5.83334 4.77614 6.0572 5 6.33334 5H7.33334C7.60949 5 7.83334 4.77614 7.83334 4.5V3.83333C7.83334 3.55719 7.60949 3.33333 7.33334 3.33333H6.33334C6.0572 3.33333 5.83334 3.55719 5.83334 3.83333V4.5ZM3.66668 11C3.39053 11 3.16668 11.2239 3.16668 11.5V12C3.16668 12.3682 3.46515 12.6667 3.83334 12.6667H4.00001C4.27615 12.6667 4.50001 12.4428 4.50001 12.1667V11.5C4.50001 11.2239 4.27615 11 4.00001 11H3.66668ZM6.33334 11C6.0572 11 5.83334 11.2239 5.83334 11.5V12.1667C5.83334 12.4428 6.0572 12.6667 6.33334 12.6667H7.33334C7.60949 12.6667 7.83334 12.4428 7.83334 12.1667V11.5C7.83334 11.2239 7.60949 11 7.33334 11H6.33334ZM9.66668 11C9.39053 11 9.16668 11.2239 9.16668 11.5V12.1667C9.16668 12.4428 9.39053 12.6667 9.66668 12.6667H10.6667C10.9428 12.6667 11.1667 12.4428 11.1667 12.1667V11.5C11.1667 11.2239 10.9428 11 10.6667 11H9.66668ZM13 11C12.7239 11 12.5 11.2239 12.5 11.5V12.1667C12.5 12.4428 12.7239 12.6667 13 12.6667H13.1667C13.5349 12.6667 13.8333 12.3682 13.8333 12V11.5C13.8333 11.2239 13.6095 11 13.3333 11H13Z" fill="#FCFCFC"/>
</svg>
