<svg width="24" height="25" viewBox="0 0 24 25" fill="none" xmlns="http://www.w3.org/2000/svg">
<path d="M2.00299 12.2155C2.04033 10.3733 2.059 9.45215 2.67093 8.66363C2.78262 8.5197 2.9465 8.3487 3.08385 8.23274C3.83639 7.59741 4.82995 7.59741 6.81706 7.59741C7.527 7.59741 7.88198 7.59741 8.22035 7.50452C8.29067 7.48522 8.36024 7.46296 8.4289 7.43781C8.75936 7.31674 9.05574 7.10837 9.64851 6.69161C11.9872 5.04738 13.1565 4.22527 14.138 4.58241C14.3261 4.65088 14.5083 4.74972 14.671 4.87162C15.5194 5.50744 15.5839 6.98675 15.7128 9.94537C15.7606 11.0409 15.7931 11.9785 15.7931 12.5C15.7931 13.0215 15.7606 13.9591 15.7128 15.0546C15.5839 18.0132 15.5194 19.4926 14.671 20.1284C14.5083 20.2503 14.3261 20.3491 14.138 20.4176C13.1565 20.7747 11.9872 19.9526 9.64851 18.3084C9.05574 17.8916 8.75936 17.6833 8.4289 17.5622C8.36024 17.537 8.29067 17.5148 8.22035 17.4955C7.88198 17.4026 7.527 17.4026 6.81706 17.4026C4.82995 17.4026 3.83639 17.4026 3.08385 16.7673C2.9465 16.6513 2.78262 16.4803 2.67093 16.3364C2.059 15.5478 2.04033 14.6267 2.00299 12.7845C2.00103 12.6878 2 12.5928 2 12.5C2 12.4072 2.00103 12.3122 2.00299 12.2155Z" fill="white"/>
<path fill-rule="evenodd" clip-rule="evenodd" d="M19.4895 6.05219C19.7821 5.79218 20.217 5.83434 20.4608 6.14635L19.931 6.61713C20.4608 6.14635 20.4606 6.14602 20.4608 6.14635L20.4619 6.1477L20.4631 6.14921L20.4658 6.15275L20.4727 6.16184C20.4779 6.1688 20.4844 6.17756 20.4921 6.18814C20.5075 6.20929 20.5275 6.23772 20.5515 6.27358C20.5995 6.34529 20.6635 6.44667 20.7379 6.57889C20.8868 6.84345 21.077 7.23092 21.2644 7.75038C21.6397 8.79107 22 10.3514 22 12.5002C22 14.6491 21.6397 16.2094 21.2644 17.2501C21.077 17.7695 20.8868 18.157 20.7379 18.4216C20.6635 18.5538 20.5995 18.6552 20.5515 18.7269C20.5275 18.7627 20.5075 18.7912 20.4921 18.8123C20.4844 18.8229 20.4779 18.8317 20.4727 18.8386L20.4658 18.8477L20.4631 18.8513L20.4619 18.8528C20.4616 18.8531 20.4608 18.8541 19.931 18.3833L20.4608 18.8541C20.217 19.1661 19.7821 19.2083 19.4895 18.9483C19.1983 18.6895 19.1578 18.229 19.3977 17.917C19.3983 17.9163 19.3994 17.9148 19.4009 17.9127C19.4058 17.906 19.4154 17.8925 19.4291 17.872C19.4565 17.8311 19.5003 17.7625 19.5552 17.6649C19.6649 17.4698 19.8195 17.1587 19.977 16.7221C20.2913 15.8508 20.6207 14.4695 20.6207 12.5002C20.6207 10.5309 20.2913 9.14968 19.977 8.27836C19.8195 7.84181 19.6649 7.53066 19.5552 7.3356C19.5003 7.23802 19.4565 7.16934 19.4291 7.12845C19.4154 7.108 19.4058 7.09449 19.4009 7.08778C19.3994 7.08561 19.3983 7.08416 19.3977 7.0834C19.3977 7.0834 19.3977 7.08341 19.3977 7.0834" fill="white"/>
<path fill-rule="evenodd" clip-rule="evenodd" d="M17.7571 8.91595C18.0901 8.71871 18.51 8.84663 18.6949 9.20166L18.0921 9.5588C18.6949 9.20166 18.6948 9.20134 18.6949 9.20166L18.6956 9.20295L18.6963 9.20432L18.6978 9.2073L18.7014 9.21428L18.7102 9.23227C18.7169 9.24607 18.7251 9.26348 18.7345 9.28457C18.7533 9.32676 18.7772 9.38363 18.8042 9.45574C18.8584 9.60004 18.9251 9.8049 18.99 10.0748C19.1199 10.615 19.2415 11.4119 19.2415 12.5003C19.2415 13.5888 19.1199 14.3857 18.99 14.9259C18.9251 15.1958 18.8584 15.4007 18.8042 15.545C18.7772 15.6171 18.7533 15.6739 18.7345 15.7161C18.7251 15.7372 18.7169 15.7546 18.7102 15.7684L18.7014 15.7864L18.6978 15.7934L18.6963 15.7964L18.6956 15.7978C18.6954 15.7981 18.6949 15.799 18.0921 15.4419L18.6949 15.799C18.51 16.1541 18.0901 16.282 17.7571 16.0847C17.427 15.8892 17.3063 15.4474 17.4846 15.0938L17.4892 15.0838C17.4955 15.0697 17.5075 15.0415 17.5236 14.9987C17.5557 14.9132 17.6039 14.7688 17.6539 14.5606C17.7539 14.1448 17.8622 13.4709 17.8622 12.5003C17.8622 11.5298 17.7539 10.8559 17.6539 10.4401C17.6039 10.2319 17.5557 10.0875 17.5236 10.002C17.5075 9.95918 17.4955 9.93102 17.4892 9.91691L17.4846 9.90687C17.3063 9.55332 17.427 9.11152 17.7571 8.91595Z" fill="white"/>
</svg>
