<svg width="24" height="24" viewBox="0 0 24 24" fill="none" xmlns="http://www.w3.org/2000/svg">
<g opacity="0.7">
<path d="M9.2905 6.79293C9.68102 6.4024 10.3142 6.4024 10.7047 6.79293C11.0952 7.18345 11.0952 7.81661 10.7047 8.20714L7.91377 10.9981L15 10.9981C15.5523 10.9981 16 11.4458 16 11.9981C16 12.5504 15.5523 12.9981 15 12.9981L7.91368 12.9981L10.7067 15.7911C11.0972 16.1816 11.0972 16.8148 10.7067 17.2053C10.3161 17.5958 9.68298 17.5958 9.29245 17.2053L4.79241 12.7052C4.60487 12.5177 4.49951 12.2633 4.49951 11.9981C4.49951 11.7329 4.60487 11.4786 4.7924 11.291L9.2905 6.79293Z" fill="#FCFCFC"/>
<path fill-rule="evenodd" clip-rule="evenodd" d="M14 20C14 19.4477 14.4477 19 15 19L17 19C17.5523 19 18 18.5523 18 18L18 6C18 5.44772 17.5523 5 17 5L15 5C14.4477 5 14 4.55229 14 4C14 3.44772 14.4477 3 15 3L17 3C18.6569 3 20 4.34315 20 6L20 18C20 19.6569 18.6569 21 17 21L15 21C14.4477 21 14 20.5523 14 20Z" fill="#FCFCFC"/>
</g>
</svg>
