<svg width="24" height="24" viewBox="0 0 24 24" fill="none" xmlns="http://www.w3.org/2000/svg">
<g opacity="0.7">
<path fill-rule="evenodd" clip-rule="evenodd" d="M9.3936 4.57364C10.5445 2.55415 13.4556 2.55415 14.6065 4.57364L21.4115 16.5146C22.5513 18.5145 21.107 21 18.805 21H5.19509C2.89318 21 1.44889 18.5146 2.58863 16.5146L9.3936 4.57364ZM12 14C12.5523 14 13 13.5523 13 13V7.99998C13 7.4477 12.5523 6.99998 12 6.99998C11.4477 6.99998 11 7.4477 11 7.99998V13C11 13.5523 11.4477 14 12 14ZM12 18C12.5523 18 13 17.5523 13 17C13 16.4477 12.5523 16 12 16C11.4477 16 11 16.4477 11 17C11 17.5523 11.4477 18 12 18Z" fill="#FCFCFC"/>
</g>
</svg>
